<svg width="22" height="22" viewBox="0 0 22 22" fill="none" xmlns="http://www.w3.org/2000/svg">
<g clip-path="url(#clip0_1339_301)">
<path d="M5.84087 5.02258C4.60667 6.25348 -0.788826 13.9491 3.87297 18.6098C8.53257 23.2716 16.226 17.875 17.4624 16.6419C18.6955 15.411 17.0939 11.8074 13.8852 8.59868C10.6743 5.38778 7.07507 3.78508 5.84087 5.02258ZM16.0313 15.5716C15.6661 15.9324 12.8468 15.0689 10.1309 12.3508C7.41717 9.63488 6.54927 6.81448 6.91447 6.45148C7.27527 6.08628 10.0979 6.95418 12.8105 9.67008C15.5286 12.3838 16.3943 15.2064 16.0313 15.5716ZM16.9751 6.58018L19.0695 4.48358C19.2757 4.27732 19.3916 3.99758 19.3916 3.70588C19.3916 3.41419 19.2757 3.13444 19.0695 2.92818C18.8632 2.72192 18.5835 2.60605 18.2918 2.60605C18.0001 2.60605 17.7203 2.72192 17.5141 2.92818L15.4197 5.02478C15.2134 5.23104 15.0975 5.51079 15.0975 5.80248C15.0975 5.94691 15.126 6.08993 15.1813 6.22337C15.2365 6.35681 15.3175 6.47805 15.4197 6.58018C15.5218 6.68231 15.643 6.76332 15.7765 6.8186C15.9099 6.87387 16.0529 6.90231 16.1974 6.90231C16.4891 6.90231 16.7688 6.78644 16.9751 6.58018ZM12.2341 4.17998C12.3603 4.25019 12.4992 4.29485 12.6427 4.31139C12.7862 4.32794 12.9316 4.31606 13.0705 4.27643C13.2094 4.2368 13.3391 4.17019 13.4523 4.08041C13.5655 3.99063 13.6599 3.87944 13.7301 3.75318L14.9258 1.63458C15.0676 1.3796 15.1022 1.07874 15.0222 0.798188C14.9422 0.517633 14.754 0.280366 14.499 0.138581C14.244 -0.0032039 13.9431 -0.0378914 13.6626 0.0421491C13.382 0.12219 13.1448 0.310402 13.003 0.565381L11.8073 2.68398C11.7371 2.81023 11.6924 2.94908 11.6759 3.09259C11.6593 3.2361 11.6712 3.38146 11.7108 3.52038C11.7505 3.6593 11.8171 3.78905 11.9068 3.90222C11.9966 4.0154 12.1078 4.10978 12.2341 4.17998ZM21.8569 7.49758C21.7867 7.37132 21.6923 7.26013 21.5791 7.17035C21.4659 7.08057 21.3362 7.01397 21.1973 6.97433C21.0584 6.9347 20.913 6.92282 20.7695 6.93937C20.626 6.95592 20.4871 7.00057 20.3609 7.07078L18.2269 8.23788C18.1006 8.30809 17.9894 8.40247 17.8997 8.51565C17.8099 8.62882 17.7433 8.75857 17.7036 8.89749C17.664 9.0364 17.6521 9.18177 17.6687 9.32528C17.6852 9.46878 17.7299 9.60763 17.8001 9.73388C17.8703 9.86013 17.9647 9.97132 18.0778 10.0611C18.191 10.1509 18.3208 10.2175 18.4597 10.2571C18.5986 10.2967 18.744 10.3086 18.8875 10.2921C19.031 10.2755 19.1698 10.2309 19.2961 10.1607L21.4301 8.99358C21.5563 8.92338 21.6675 8.829 21.7573 8.71582C21.8471 8.60265 21.9137 8.4729 21.9533 8.33398C21.993 8.19506 22.0048 8.0497 21.9883 7.90619C21.9717 7.76268 21.9271 7.62383 21.8569 7.49758Z" fill="white"/>
</g>
<defs>
<clipPath id="clip0_1339_301">
<rect width="22" height="22" fill="white"/>
</clipPath>
</defs>
</svg>
