<svg width="22" height="22" viewBox="0 0 22 22" fill="none" xmlns="http://www.w3.org/2000/svg">
<path d="M5.84087 5.02262C4.60667 6.25352 -0.788826 13.9491 3.87297 18.6098C8.53257 23.2716 16.226 17.875 17.4624 16.6419C18.6955 15.411 17.0939 11.8074 13.8852 8.59872C10.6743 5.38782 7.07507 3.78512 5.84087 5.02262ZM16.0313 15.5716C15.6661 15.9324 12.8468 15.0689 10.1309 12.3508C7.41717 9.63492 6.54927 6.81452 6.91447 6.45152C7.27527 6.08632 10.0979 6.95422 12.8105 9.67012C15.5286 12.3838 16.3943 15.2064 16.0313 15.5716Z" fill="white"/>
<path d="M16 7L20 3" stroke="white" stroke-width="2" stroke-linecap="round"/>
<path d="M16 3L20 7" stroke="white" stroke-width="2" stroke-linecap="round"/>
</svg>
