<svg width="19" height="18" viewBox="0 0 19 18" fill="none" xmlns="http://www.w3.org/2000/svg">
<g clip-path="url(#clip0_1268_934)">
<path d="M4.41699 9.68457H4.45703L4.89746 7H6.29004L5.43848 12.1299H4.27637L2.87402 9.43457H2.84375L2.39355 12.1299H1L1.85254 7H3.03418L4.41699 9.68457ZM10.458 8.12207H8.15332L8.01367 9.00391H10.127L9.93652 10.126H7.82324L7.68262 11.0078H9.97656L9.78711 12.1299H6.09961L6.95117 7H10.6484L10.458 8.12207ZM12.8584 10.1553H12.8984L14.251 7H15.4727L15.7842 10.166H15.8242L17.0459 7H18.5986L16.2344 12.1299H14.9023L14.5117 9.26367H14.4717L13.1191 12.1299H11.7861L11.125 7H12.6777L12.8584 10.1553Z" fill="#08FE8B"/>
</g>
<defs>
<clipPath id="clip0_1268_934">
<rect width="17.7375" height="17.7375" fill="white" transform="translate(0.53125 0.209381)"/>
</clipPath>
</defs>
</svg>
