<svg width="19" height="18" viewBox="0 0 19 18" fill="none" xmlns="http://www.w3.org/2000/svg">
<g clip-path="url(#clip0_1268_934)">
<path d="M3.41699 12.6846H3.45703L3.89746 10H5.29004L4.43848 15.1299H3.27637L1.87402 12.4346H1.84375L1.39355 15.1299H0L0.852539 10H2.03418L3.41699 12.6846ZM9.45801 11.1221H7.15332L7.01367 12.0039H9.12695L8.93652 13.126H6.82324L6.68262 14.0078H8.97656L8.78711 15.1299H5.09961L5.95117 10H9.64844L9.45801 11.1221ZM11.8584 13.1553H11.8984L13.251 10H14.4727L14.7842 13.166H14.8242L16.0459 10H17.5986L15.2344 15.1299H13.9023L13.5117 12.2637H13.4717L12.1191 15.1299H10.7861L10.125 10H11.6777L11.8584 13.1553Z" fill="#08FE8B"/>
<path d="M6 8.0004H3V5.18204C3 3.97711 3.97674 3.00049 5.18164 3.0004H6V8.0004ZM12.8184 3.0004C14.0233 3.00049 15 3.97711 15 5.18204V8.0004H8V3.0004H12.8184Z" fill="#08FE8B"/>
</g>
<defs>
<clipPath id="clip0_1268_934">
<rect width="17.7375" height="17.7375" fill="white" transform="translate(0.53125 0.209381)"/>
</clipPath>
</defs>
</svg>
