<svg width="19" height="19" viewBox="0 0 19 19" fill="none" xmlns="http://www.w3.org/2000/svg">
<path d="M11.5672 6.72852C9.15193 6.72852 7.13281 8.51631 7.13281 10.7934C7.13281 13.0704 9.15193 14.8582 11.5672 14.8582C12.1192 14.8589 12.6673 14.7644 13.1872 14.5788L15.1206 15.3844C15.1845 15.411 15.2546 15.419 15.3228 15.4077C15.3911 15.3964 15.4548 15.3661 15.5067 15.3204C15.5586 15.2746 15.5966 15.2152 15.6164 15.149C15.6362 15.0827 15.637 15.0121 15.6187 14.9454L15.1428 13.199C15.696 12.5191 15.9991 11.6699 16.0016 10.7934C16.0016 8.51631 13.9824 6.72852 11.5672 6.72852Z" fill="white"/>
<path d="M3.8125 7.65234C3.8125 8.52887 4.14803 9.33445 4.70972 9.96783L4.34093 11.3188C4.28993 11.5058 4.26481 11.5997 4.2892 11.6588C4.31137 11.7105 4.35571 11.749 4.40966 11.7637C4.47174 11.7815 4.56117 11.7438 4.74002 11.6691L6.25067 11.0402C6.3024 11.0609 6.35537 11.0806 6.40957 11.0993C6.4026 10.9975 6.39914 10.8954 6.39922 10.7934C6.39922 8.06474 8.77974 6.02123 11.5084 5.98945C10.8395 4.78478 9.46485 3.95703 7.87734 3.95703C5.63207 3.95703 3.8125 5.61179 3.8125 7.65234Z" fill="white"/>
</svg>
