<svg width="24" height="24" viewBox="0 0 24 24" fill="none" xmlns="http://www.w3.org/2000/svg">
<path d="M9.18333 6.11697C7.88934 5.8571 6.54577 6.03115 5.3607 6.61215C4.17563 7.19315 3.2152 8.14869 2.62815 9.33078C2.0411 10.5129 1.8602 11.8555 2.11346 13.1508C2.36671 14.4461 3.04 15.6218 4.02903 16.4957C5.01807 17.3697 6.26767 17.8931 7.5843 17.985C8.90092 18.0768 10.2111 17.732 11.3119 17.0039C12.4128 16.2758 13.2428 15.2051 13.6735 13.9575C14.1042 12.7099 14.1115 11.3551 13.6943 10.103M14.8121 17.8831C16.1075 18.1443 17.4528 17.9705 18.6393 17.3888C19.8258 16.8071 20.7871 15.85 21.374 14.666C21.9608 13.482 22.1403 12.1374 21.8847 10.8409C21.6291 9.54446 20.9527 8.36862 19.9604 7.49596C18.9681 6.62329 17.7155 6.10261 16.397 6.01475C15.0785 5.92688 13.7679 6.27675 12.6685 7.01003C11.5692 7.74332 10.7428 8.819 10.3174 10.0701C9.89203 11.3212 9.89159 12.6777 10.3161 13.9291" stroke="black" stroke-width="2" stroke-linecap="round" stroke-linejoin="round"/>
</svg>
