<svg width="25" height="25" viewBox="0 0 25 25" fill="none" xmlns="http://www.w3.org/2000/svg">
<path d="M13.0322 1.5C13.5944 1.50004 14.1473 1.64263 14.6396 1.91406L21.416 5.90918C21.4807 5.94701 21.5412 5.99154 21.5967 6.04199L21.6035 6.04883L21.7109 6.12402C22.0858 6.40512 22.3954 6.76497 22.6172 7.17773C22.8387 7.59028 22.9677 8.04622 22.9951 8.51367L23 8.71777V16.002C23 17.177 22.357 18.2579 21.377 18.7949L14.5732 23.0967C13.5933 23.6346 12.407 23.6353 11.373 23.0654L4.67773 18.8281C4.17052 18.5507 3.74732 18.1416 3.45215 17.6445C3.15699 17.1474 3.00078 16.5801 3 16.002V8.7168C2.99975 8.14444 3.15238 7.58232 3.44238 7.08887C3.7325 6.59531 4.15003 6.18839 4.65039 5.91016L11.4248 1.91406H11.4238C11.9163 1.64251 12.4699 1.5 13.0322 1.5ZM13.0059 6.50488C12.4536 6.50488 12.0059 6.9526 12.0059 7.50488V11.5H8C7.44772 11.5 7 11.9477 7 12.5C7 13.0523 7.44772 13.5 8 13.5H12.0059V17.5049C12.0059 18.0572 12.4536 18.5049 13.0059 18.5049C13.5581 18.5049 14.0059 18.0572 14.0059 17.5049V13.5H18C18.5523 13.5 19 13.0523 19 12.5C19 11.9477 18.5523 11.5 18 11.5H14.0059V7.50488C14.0059 6.9526 13.5581 6.50488 13.0059 6.50488Z" fill="black"/>
</svg>
