<svg width="24" height="25" viewBox="0 0 24 25" fill="none" xmlns="http://www.w3.org/2000/svg">
<path d="M17.5513 17.2501C16.1448 15.8438 14.2373 15.0537 12.2483 15.0537C10.2593 15.0537 8.35181 15.8438 6.94531 17.2501M18.0007 4.30383C16.6226 3.50822 14.9849 3.29261 13.4479 3.70444C11.9109 4.11627 10.6004 5.1218 9.80469 6.49984L20.1967 12.4998C20.9923 11.1218 21.2079 9.48408 20.7961 7.94704C20.3843 6.41 19.3787 5.09951 18.0007 4.30383ZM18.0007 4.30383C18.9577 4.85583 18.3915 7.63027 16.7335 10.5003M18.0007 4.30383C17.0437 3.75183 14.9265 5.63027 13.2695 8.50027M15 9.5L12 14.696M3 19.7495C3.31129 19.5948 3.65249 19.5095 4 19.4995C4.3895 19.4914 4.77512 19.5782 5.12358 19.7524C5.47203 19.9266 5.77283 20.1831 6 20.4995C6.22717 20.816 6.52797 21.0725 6.87642 21.2467C7.22488 21.4209 7.6105 21.5077 8 21.4995C8.3895 21.5077 8.77512 21.4209 9.12358 21.2467C9.47203 21.0725 9.77283 20.816 10 20.4995C10.2272 20.1831 10.528 19.9266 10.8764 19.7524C11.2249 19.5782 11.6105 19.4914 12 19.4995C12.3895 19.4914 12.7751 19.5782 13.1236 19.7524C13.472 19.9266 13.7728 20.1831 14 20.4995C14.2272 20.816 14.528 21.0725 14.8764 21.2467C15.2249 21.4209 15.6105 21.5077 16 21.4995C16.3895 21.5077 16.7751 21.4209 17.1236 21.2467C17.472 21.0725 17.7728 20.816 18 20.4995C18.2272 20.1831 18.528 19.9266 18.8764 19.7524C19.2249 19.5782 19.6105 19.4914 20 19.4995C20.3475 19.5095 20.6887 19.5948 21 19.7495" stroke="#00A66A" stroke-width="2" stroke-linecap="round" stroke-linejoin="round"/>
</svg>
