<svg width="24" height="25" viewBox="0 0 24 25" fill="none" xmlns="http://www.w3.org/2000/svg">
<path d="M23.8107 10.6965H21.4144C21.4019 10.4939 21.35 10.3193 21.2588 10.1727C21.1676 10.0261 21.0496 9.91405 20.905 9.83645C20.7635 9.75454 20.6062 9.71359 20.4333 9.71359C20.21 9.71359 20.0182 9.76963 19.8578 9.88171C19.6974 9.9938 19.6188 10.1533 19.6219 10.3602C19.6188 10.5068 19.6644 10.6426 19.7587 10.7676C19.8562 10.8926 20.0433 10.9896 20.3201 11.0586L21.7918 11.4207C22.5339 11.6061 23.0858 11.9186 23.4475 12.3583C23.8123 12.7937 23.9962 13.3778 23.9994 14.1107C23.9962 14.8177 23.8421 15.432 23.5371 15.9536C23.2352 16.4709 22.8217 16.8718 22.2965 17.1563C21.7745 17.4365 21.1786 17.5766 20.5088 17.5766C19.4018 17.5766 18.5355 17.2663 17.9097 16.6455C17.287 16.0247 16.9395 15.2057 16.8672 14.1883H19.4521C19.4867 14.503 19.5999 14.7465 19.7918 14.919C19.9867 15.0871 20.232 15.1712 20.5276 15.1712C20.7666 15.1712 20.9632 15.1151 21.1173 15.003C21.2745 14.891 21.3547 14.7315 21.3578 14.5245C21.3547 14.3349 21.2855 14.184 21.1503 14.0719C21.0182 13.9598 20.8106 13.8693 20.5276 13.8003L19.2446 13.4899C18.5056 13.3132 17.9521 12.9769 17.5842 12.4812C17.2163 11.9854 17.0339 11.3474 17.037 10.5671C17.0339 9.8774 17.1659 9.29328 17.4332 8.81477C17.7037 8.33195 18.0889 7.96553 18.5889 7.7155C19.0921 7.46116 19.688 7.33398 20.3767 7.33398C21.4239 7.33398 22.2494 7.63144 22.8531 8.22634C23.4601 8.82124 23.7793 9.64462 23.8107 10.6965Z" fill="#AA60DE"/>
<path d="M8.58594 21.1202V7.46331H11.1709V9.19628H11.2275C11.3218 8.86004 11.4602 8.55181 11.6426 8.2716C11.825 7.98708 12.0514 7.76076 12.3218 7.59264C12.5923 7.4202 12.9068 7.33398 13.2653 7.33398C13.7433 7.33398 14.1977 7.50858 14.6285 7.85776C15.0625 8.20694 15.4147 8.75657 15.6851 9.50667C15.9587 10.2568 16.0955 11.231 16.0955 12.4294C16.0955 13.5761 15.965 14.5267 15.704 15.2811C15.4461 16.0355 15.1002 16.5981 14.6662 16.9688C14.2354 17.3395 13.7621 17.5249 13.2464 17.5249C12.9068 17.5249 12.6033 17.4495 12.336 17.2986C12.0718 17.1434 11.8454 16.9343 11.6567 16.6713C11.4712 16.4041 11.3281 16.1023 11.2275 15.7661H11.1898V21.1202H8.58594ZM11.1331 12.4294C11.1331 12.9123 11.1787 13.3304 11.2699 13.6839C11.3643 14.0331 11.4964 14.3047 11.6662 14.4987C11.8391 14.6883 12.0451 14.7832 12.2841 14.7832C12.5231 14.7832 12.7259 14.6905 12.8926 14.5051C13.0624 14.3155 13.1914 14.046 13.2794 13.6968C13.3706 13.3434 13.4162 12.9209 13.4162 12.4294C13.4162 11.938 13.3706 11.5177 13.2794 11.1685C13.1914 10.815 13.0624 10.5456 12.8926 10.3602C12.7259 10.1705 12.5231 10.0757 12.2841 10.0757C12.0451 10.0757 11.8391 10.1705 11.6662 10.3602C11.4964 10.5456 11.3643 10.815 11.2699 11.1685C11.1787 11.5177 11.1331 11.938 11.1331 12.4294Z" fill="#AA60DE"/>
<path d="M2.60382 11.8087V17.3956H0V7.46331H2.47174V9.35148H2.54721C2.70445 8.72209 2.98118 8.22849 3.37741 7.87069C3.77679 7.51289 4.24221 7.33398 4.77366 7.33398C5.28625 7.33398 5.73123 7.49564 6.10859 7.81896C6.4891 8.13796 6.78313 8.57767 6.99068 9.13809C7.20138 9.6985 7.30515 10.3387 7.30201 11.0586V17.3956H4.69819V11.8087C4.70133 11.3172 4.61014 10.9314 4.4246 10.6512C4.24221 10.371 3.98749 10.2309 3.66044 10.2309C3.4466 10.2309 3.25949 10.2956 3.09911 10.4249C2.94187 10.5499 2.8208 10.731 2.73589 10.9681C2.65099 11.2008 2.60696 11.4811 2.60382 11.8087Z" fill="#AA60DE"/>
</svg>
