<svg width="24" height="25" viewBox="0 0 24 25" fill="none" xmlns="http://www.w3.org/2000/svg">
<path d="M18.0003 4.5C18.1509 4.5 18.2995 4.534 18.435 4.59945C18.5706 4.6649 18.6897 4.76012 18.7833 4.878L18.8573 4.986L21.8573 9.986C21.9556 10.15 22.0048 10.3386 21.9991 10.5297C21.9934 10.7207 21.9331 10.9062 21.8253 11.064L21.7453 11.167L13.2153 20.7C13.0569 20.8616 12.8679 20.9899 12.6592 21.0775C12.4506 21.1651 12.2266 21.2101 12.0003 21.21C11.6003 21.21 11.2153 21.07 10.8903 20.793L10.7553 20.667L2.25531 11.167C2.12743 11.0243 2.04324 10.8479 2.01275 10.6587C1.98225 10.4696 2.00675 10.2756 2.08331 10.1L2.14331 9.985L5.15631 4.963L5.22031 4.873C5.26608 4.81606 5.31807 4.76441 5.37531 4.719L5.46431 4.655L5.55231 4.605L5.60231 4.582L5.66231 4.557L5.77131 4.525L5.88331 4.505L6.00031 4.5H18.0003ZM9.11431 8.443C8.88697 8.30686 8.6149 8.26652 8.35784 8.33083C8.10078 8.39514 7.87975 8.55885 7.74331 8.786L7.14331 9.786L7.08331 9.902C7.00677 10.0785 6.98276 10.2733 7.01415 10.4631C7.04555 10.6529 7.13102 10.8296 7.26031 10.972L9.26031 13.172L9.35031 13.26C9.53542 13.4184 9.77199 13.5038 10.0156 13.5001C10.2592 13.4964 10.4931 13.4039 10.6733 13.24L10.7603 13.15C10.9187 12.9649 11.0041 12.7283 11.0004 12.4847C10.9967 12.2411 10.9042 12.0072 10.7403 11.827L9.23931 10.177L9.45731 9.814L9.51231 9.711C9.6128 9.48758 9.62778 9.23505 9.55442 9.00132C9.48106 8.76759 9.32445 8.56892 9.11431 8.443Z" fill="#3C56FF"/>
</svg>
