<svg width="25" height="25" viewBox="0 0 25 25" fill="none" xmlns="http://www.w3.org/2000/svg">
<path d="M20.375 6.76959C20.7187 6.96505 21.0041 7.24856 21.2018 7.59095C21.3995 7.93333 21.5025 8.32222 21.5 8.71759V16.0016C21.5 16.8106 21.057 17.5566 20.342 17.9496L13.592 22.2196C13.2574 22.4033 12.8818 22.4996 12.5 22.4996C12.1182 22.4996 11.7426 22.4033 11.408 22.2196L4.658 17.9496C4.30817 17.7584 4.01612 17.4768 3.81241 17.1341C3.6087 16.7914 3.5008 16.4003 3.5 16.0016V8.71659C3.5 7.90759 3.943 7.16259 4.658 6.76959L11.408 2.78959C11.7525 2.59963 12.1396 2.5 12.533 2.5C12.9264 2.5 13.3135 2.59963 13.658 2.78959L20.408 6.76959H20.375Z" stroke="black" stroke-width="2" stroke-linecap="round" stroke-linejoin="round"/>
<path d="M9.5 12.5C9.5 13.2956 9.81607 14.0587 10.3787 14.6213C10.9413 15.1839 11.7044 15.5 12.5 15.5C13.2956 15.5 14.0587 15.1839 14.6213 14.6213C15.1839 14.0587 15.5 13.2956 15.5 12.5C15.5 11.7044 15.1839 10.9413 14.6213 10.3787C14.0587 9.81607 13.2956 9.5 12.5 9.5C11.7044 9.5 10.9413 9.81607 10.3787 10.3787C9.81607 10.9413 9.5 11.7044 9.5 12.5Z" stroke="black" stroke-width="2" stroke-linecap="round" stroke-linejoin="round"/>
</svg>
