<svg width="25" height="25" viewBox="0 0 25 25" fill="none" xmlns="http://www.w3.org/2000/svg">
<path d="M17.5117 9.885V15.013L21.5007 18.5V6.5L17.5117 9.885Z" stroke="black" stroke-width="2" stroke-linecap="round" stroke-linejoin="round"/>
<path d="M4.387 6.5H14.467C15.935 6.5 17.5 7.703 17.5 9.303V17.499C17.5024 17.7606 17.4013 18.0126 17.2186 18.1999C17.0359 18.3873 16.7866 18.4948 16.525 18.499H6.152C4.485 18.499 3.5 16.999 3.5 15.499L3.51 7.499C3.49119 7.37265 3.50004 7.24373 3.53596 7.12114C3.57187 6.99855 3.63398 6.88522 3.718 6.789C3.801 6.69397 3.90431 6.61883 4.02029 6.56914C4.13627 6.51946 4.26195 6.49651 4.388 6.502L4.387 6.5Z" stroke="black" stroke-width="2" stroke-linecap="round" stroke-linejoin="round"/>
</svg>
