<svg width="22" height="22" viewBox="0 0 22 22" fill="none" xmlns="http://www.w3.org/2000/svg">
<path d="M2.75 9.62501C2.75013 8.03244 3.2112 6.47394 4.07757 5.13764C4.94393 3.80134 6.17856 2.74436 7.63241 2.09429C9.08626 1.44421 10.6972 1.22883 12.2708 1.47413C13.8443 1.71944 15.3133 2.41495 16.5002 3.47671C17.6872 4.53847 18.5415 5.9211 18.9601 7.4577C19.3786 8.9943 19.3434 10.6192 18.8587 12.1362C18.3741 13.6533 17.4607 14.9976 16.2289 16.007C14.997 17.0164 13.4994 17.6476 11.9167 17.8246V19.2051C13.4838 19.0499 14.984 18.4912 16.2708 17.5835L17.0207 17.0564L18.0758 18.5552L17.3268 19.0832C15.4754 20.388 13.265 21.0868 11 21.0833C8.73499 21.0868 6.5246 20.388 4.67317 19.0832L3.92333 18.5552L4.97933 17.0564L5.72917 17.5835C7.01604 18.4912 8.5162 19.0499 10.0833 19.2051V17.8246C8.06647 17.5991 6.20348 16.6381 4.85059 15.1254C3.4977 13.6127 2.74984 11.6544 2.75 9.62501ZM6.875 9.62501C6.875 10.719 7.3096 11.7682 8.08318 12.5418C8.85677 13.3154 9.90598 13.75 11 13.75C12.094 13.75 13.1432 13.3154 13.9168 12.5418C14.6904 11.7682 15.125 10.719 15.125 9.62501C15.125 8.53099 14.6904 7.48178 13.9168 6.70819C13.1432 5.93461 12.094 5.50001 11 5.50001C9.90598 5.50001 8.85677 5.93461 8.08318 6.70819C7.3096 7.48178 6.875 8.53099 6.875 9.62501ZM8.70833 9.62501C8.70833 10.2328 8.94978 10.8157 9.37955 11.2455C9.80932 11.6752 10.3922 11.9167 11 11.9167C11.6078 11.9167 12.1907 11.6752 12.6205 11.2455C13.0502 10.8157 13.2917 10.2328 13.2917 9.62501C13.2917 9.01722 13.0502 8.43433 12.6205 8.00456C12.1907 7.57478 11.6078 7.33334 11 7.33334C10.3922 7.33334 9.80932 7.57478 9.37955 8.00456C8.94978 8.43433 8.70833 9.01722 8.70833 9.62501Z" fill="white"/>
<path d="M14 19L18 15" stroke="#FF0000" stroke-width="2" stroke-linecap="round"/>
<path d="M14 15L18 19" stroke="#FF0000" stroke-width="2" stroke-linecap="round"/>
</svg>
