<svg width="69" height="14" viewBox="0 0 69 14" fill="none" xmlns="http://www.w3.org/2000/svg">
<path d="M63.876 11.0642C63.0706 11.0642 62.406 10.8985 61.8824 10.5671C61.362 10.2356 60.9958 9.77328 60.7836 9.18C60.5715 8.58673 60.5301 7.89733 60.6594 7.11182C60.7886 6.32962 61.0554 5.64355 61.4598 5.05358C61.8641 4.46362 62.3812 4.00458 63.0109 3.67645C63.6407 3.34833 64.3549 3.18427 65.1537 3.18427C65.9558 3.18427 66.617 3.34998 67.1373 3.68142C67.661 4.01286 68.0289 4.47522 68.241 5.0685C68.4565 5.66177 68.4996 6.35283 68.3703 7.14165C68.241 7.92385 67.9726 8.60993 67.5649 9.19989C67.1572 9.78654 66.6402 10.2439 66.0138 10.572C65.3873 10.9002 64.6747 11.0642 63.876 11.0642ZM64.1494 9.22972C64.4477 9.22972 64.7145 9.14023 64.9498 8.96125C65.1885 8.78228 65.389 8.53204 65.5514 8.21054C65.7138 7.88905 65.8298 7.51618 65.8994 7.09194C65.969 6.67432 65.9756 6.30808 65.9193 5.99321C65.8663 5.67503 65.7536 5.42811 65.5812 5.25245C65.4089 5.07347 65.1752 4.98398 64.8802 4.98398C64.5819 4.98398 64.3135 5.07513 64.0748 5.25742C63.8362 5.4364 63.6357 5.68663 63.4733 6.00813C63.3142 6.32631 63.1998 6.69918 63.1302 7.12674C63.0606 7.54435 63.0523 7.91059 63.1054 8.22546C63.1584 8.54033 63.2728 8.78725 63.4484 8.96623C63.6241 9.14189 63.8577 9.22972 64.1494 9.22972Z" fill="#A8AAB7"/>
<path d="M54.4189 13.9428C53.6898 13.9428 53.0832 13.8417 52.5993 13.6395C52.1154 13.4373 51.7541 13.1606 51.5155 12.8093C51.2769 12.4579 51.1625 12.0602 51.1725 11.6161L53.4992 11.4868C53.5191 11.6459 53.5771 11.7835 53.6732 11.8995C53.7693 12.0155 53.9068 12.1033 54.0858 12.163C54.2648 12.2259 54.4869 12.2574 54.752 12.2574C55.1597 12.2574 55.5143 12.158 55.8159 11.9591C56.1175 11.7603 56.3032 11.4172 56.3728 10.93L56.5965 9.58767H56.512C56.3794 9.823 56.2004 10.0335 55.975 10.2191C55.7497 10.4047 55.4828 10.5505 55.1746 10.6566C54.8664 10.7626 54.525 10.8157 54.1505 10.8157C53.5903 10.8157 53.1014 10.6864 52.6838 10.4279C52.2662 10.166 51.9646 9.76168 51.779 9.21481C51.5934 8.66462 51.5719 7.95699 51.7144 7.09194C51.8635 6.20036 52.1287 5.46622 52.5098 4.88952C52.891 4.3095 53.3351 3.88029 53.8422 3.60188C54.3526 3.32347 54.8747 3.18427 55.4083 3.18427C55.8093 3.18427 56.1407 3.25387 56.4026 3.39307C56.6644 3.52896 56.8699 3.70463 57.0191 3.92006C57.1682 4.1355 57.2743 4.35922 57.3372 4.59123H57.4068L57.6206 3.2837H60.0418L58.7691 10.9499C58.6663 11.5995 58.4161 12.1464 58.0184 12.5905C57.6206 13.0346 57.1119 13.3711 56.4921 13.5997C55.8723 13.8284 55.1812 13.9428 54.4189 13.9428ZM55.274 9.04577C55.569 9.04577 55.8358 8.96788 56.0745 8.81211C56.3131 8.65633 56.5136 8.43261 56.676 8.14094C56.8384 7.84927 56.9528 7.49961 57.0191 7.09194C57.0854 6.67764 57.0854 6.32134 57.0191 6.02304C56.9561 5.72143 56.8335 5.48943 56.6512 5.32702C56.4689 5.16462 56.2286 5.08341 55.9303 5.08341C55.6287 5.08341 55.3602 5.16627 55.1249 5.33199C54.8929 5.49771 54.6973 5.73138 54.5382 6.03299C54.3825 6.33128 54.2731 6.68426 54.2101 7.09194C54.1438 7.49961 54.1389 7.84927 54.1952 8.14094C54.2549 8.43261 54.3742 8.65633 54.5532 8.81211C54.7354 8.96788 54.9757 9.04577 55.274 9.04577Z" fill="#A8AAB7"/>
<path d="M46.2275 11.0642C45.4221 11.0642 44.7576 10.8985 44.2339 10.5671C43.7136 10.2356 43.3473 9.77328 43.1352 9.18C42.9231 8.58673 42.8817 7.89733 43.0109 7.11182C43.1402 6.32962 43.407 5.64355 43.8113 5.05358C44.2157 4.46362 44.7327 4.00458 45.3625 3.67645C45.9922 3.34833 46.7065 3.18427 47.5052 3.18427C48.3073 3.18427 48.9685 3.34998 49.4889 3.68142C50.0126 4.01286 50.3805 4.47522 50.5926 5.0685C50.808 5.66177 50.8511 6.35283 50.7219 7.14165C50.5926 7.92385 50.3241 8.60993 49.9165 9.19989C49.5088 9.78654 48.9917 10.2439 48.3653 10.572C47.7389 10.9002 47.0263 11.0642 46.2275 11.0642ZM46.501 9.22972C46.7993 9.22972 47.0661 9.14023 47.3014 8.96125C47.54 8.78228 47.7406 8.53204 47.903 8.21054C48.0654 7.88905 48.1814 7.51618 48.251 7.09194C48.3206 6.67432 48.3272 6.30808 48.2709 5.99321C48.2178 5.67503 48.1051 5.42811 47.9328 5.25245C47.7604 5.07347 47.5268 4.98398 47.2318 4.98398C46.9335 4.98398 46.665 5.07513 46.4264 5.25742C46.1878 5.4364 45.9872 5.68663 45.8248 6.00813C45.6657 6.32631 45.5514 6.69918 45.4818 7.12674C45.4122 7.54435 45.4039 7.91059 45.4569 8.22546C45.51 8.54033 45.6243 8.78725 45.8 8.96623C45.9756 9.14189 46.2093 9.22972 46.501 9.22972Z" fill="#A8AAB7"/>
<path d="M34.6953 10.9201L36.3857 0.738251H38.8466L37.4943 8.92149H41.7301L41.392 10.9201H34.6953Z" fill="#A8AAB7"/>
<path d="M25.7969 10.9201L27.0696 3.28369H29.4311L29.1974 4.67574H29.277C29.4991 4.17195 29.7891 3.79743 30.147 3.55216C30.505 3.30358 30.8928 3.17929 31.3104 3.17929C31.4231 3.17929 31.5357 3.18758 31.6484 3.20415C31.7644 3.21741 31.8738 3.23729 31.9766 3.26381L31.6186 5.38171C31.5059 5.33862 31.3584 5.30713 31.1761 5.28725C30.9938 5.26404 30.8281 5.25244 30.679 5.25244C30.3906 5.25244 30.1222 5.31707 29.8736 5.44634C29.6283 5.57228 29.4195 5.7496 29.2472 5.9783C29.0781 6.20367 28.9671 6.46883 28.9141 6.77375L28.228 10.9201H25.7969Z" fill="#A8AAB7"/>
<path d="M22.3673 7.62391L23.0932 3.28371H25.5193L24.2466 10.9201H21.9298L22.1635 9.4982H22.084C21.8486 9.96553 21.5023 10.3367 21.0449 10.6118C20.5875 10.8836 20.0721 11.0195 19.4987 11.0195C18.9784 11.0195 18.5409 10.9002 18.1862 10.6615C17.8316 10.4229 17.5797 10.0898 17.4306 9.66226C17.2847 9.23139 17.2582 8.7276 17.351 8.15089L18.1663 3.28371H20.5975L19.8666 7.67362C19.8037 8.08792 19.8583 8.41439 20.0307 8.65302C20.2064 8.89166 20.4815 9.01098 20.856 9.01098C21.0979 9.01098 21.325 8.95795 21.5371 8.85189C21.7492 8.74251 21.9282 8.58508 22.074 8.37959C22.2232 8.17078 22.3209 7.91889 22.3673 7.62391Z" fill="#A8AAB7"/>
<path d="M11.79 11.0642C10.9846 11.0642 10.3201 10.8985 9.79643 10.5671C9.27607 10.2356 8.90983 9.77328 8.69771 9.18C8.48558 8.58673 8.44415 7.89733 8.57342 7.11182C8.70268 6.32962 8.96948 5.64355 9.37384 5.05358C9.7782 4.46362 10.2952 4.00458 10.925 3.67645C11.5547 3.34833 12.269 3.18427 13.0677 3.18427C13.8698 3.18427 14.531 3.34998 15.0514 3.68142C15.5751 4.01286 15.943 4.47522 16.1551 5.0685C16.3705 5.66177 16.4136 6.35283 16.2844 7.14165C16.1551 7.92385 15.8866 8.60993 15.479 9.19989C15.0713 9.78654 14.5542 10.2439 13.9278 10.572C13.3014 10.9002 12.5888 11.0642 11.79 11.0642ZM12.0635 9.22972C12.3618 9.22972 12.6286 9.14023 12.8639 8.96125C13.1025 8.78228 13.3031 8.53204 13.4655 8.21054C13.6279 7.88905 13.7439 7.51618 13.8135 7.09194C13.8831 6.67432 13.8897 6.30808 13.8334 5.99321C13.7803 5.67503 13.6676 5.42811 13.4953 5.25245C13.3229 5.07347 13.0893 4.98398 12.7943 4.98398C12.496 4.98398 12.2275 5.07513 11.9889 5.25742C11.7503 5.4364 11.5497 5.68663 11.3873 6.00813C11.2282 6.32631 11.1139 6.69918 11.0443 7.12674C10.9747 7.54435 10.9664 7.91059 11.0194 8.22546C11.0725 8.54033 11.1868 8.78725 11.3625 8.96623C11.5381 9.14189 11.7718 9.22972 12.0635 9.22972Z" fill="#A8AAB7"/>
<path d="M0.757812 0.738251H3.5071L4.94886 4.9989H5.05327L7.90199 0.738251H10.6513L5.80398 7.5195L5.23722 10.9201H2.79119L3.36293 7.5195L0.757812 0.738251Z" fill="#A8AAB7"/>
</svg>
