<svg width="128" height="128" viewBox="0 0 128 128" fill="none" xmlns="http://www.w3.org/2000/svg">
<g clip-path="url(#clip0_1195_1773)">
<path d="M56.3408 1.95352C60.8527 -0.651423 66.4119 -0.651288 70.9238 1.95352L111.989 25.6625C116.501 28.2675 119.28 33.0816 119.28 38.2914V85.7094C119.28 90.9192 116.501 95.7332 111.989 98.3383L70.9238 122.047C66.4118 124.652 60.8528 124.652 56.3408 122.047L15.2764 98.3383C10.7644 95.7333 7.98438 90.9194 7.98438 85.7094V38.2914C7.98448 34.9077 9.1577 31.6911 11.2158 29.1381L57.6211 92.5365C58.8983 94.2811 60.862 95.3967 63.0146 95.599C65.1672 95.8011 67.3041 95.0712 68.8838 93.5951L103.879 60.8949C107.964 57.0773 106.983 50.3553 101.979 47.8627L84.6113 39.2143L67.3213 30.6039L67.0693 30.4838C61.7704 28.06 55.6821 31.9585 55.7324 37.8481L55.9609 64.6693L23.8047 20.7377L56.3408 1.95352ZM77.8711 52.7494L86.0752 56.8344L71.1338 70.7963L70.9502 49.3022L77.8711 52.7494Z" fill="black"/>
</g>
<defs>
<clipPath id="clip0_1195_1773">
<rect width="128" height="128" fill="white"/>
</clipPath>
</defs>
</svg>
