<svg width="32" height="32" viewBox="0 0 32 32" fill="none" xmlns="http://www.w3.org/2000/svg">
<g clip-path="url(#clip0_1195_1764)">
<path d="M14.0889 0.488264C15.2168 -0.162809 16.6065 -0.162864 17.7344 0.488264L28.001 6.416C29.1287 7.06731 29.8232 8.27088 29.8232 9.57323V21.4277C29.8231 22.73 29.1288 23.9337 28.001 24.5849L17.7344 30.5117C16.6064 31.1629 15.2169 31.1629 14.0889 30.5117L3.82227 24.5849C2.69438 23.9337 2.00011 22.7301 2 21.4277V9.57323C2 8.72901 2.29213 7.92669 2.80469 7.28905L14.4023 23.1347C14.7215 23.5708 15.213 23.8487 15.751 23.8994C16.2888 23.9499 16.8229 23.768 17.2178 23.3994L25.9668 15.2236C26.9881 14.2692 26.7434 12.589 25.4922 11.9658L21.1504 9.80369L16.8271 7.65135L16.7012 7.59373C15.3919 7.04695 13.9184 8.01315 13.9307 9.4619L13.9873 16.167L5.9502 5.18651L14.0889 0.488264ZM19.4648 13.1875L21.5156 14.209L17.7803 17.6992L17.7344 12.3252L19.4648 13.1875Z" fill="#17162B"/>
</g>
<defs>
<clipPath id="clip0_1195_1764">
<rect width="32" height="32" fill="white"/>
</clipPath>
</defs>
</svg>
