<svg width="64" height="64" viewBox="0 0 64 64" fill="none" xmlns="http://www.w3.org/2000/svg">
<path d="M28.1699 0.977142C30.4259 -0.325364 33.2059 -0.325364 35.4619 0.977142L55.9941 12.8316C58.25 14.1342 59.6396 16.5412 59.6396 19.1461V42.8551C59.6395 45.4599 58.25 47.8671 55.9941 49.1695L35.4619 61.024C33.2059 62.3265 30.4259 62.3265 28.1699 61.024L7.6377 49.1695C5.38179 47.8671 3.99232 45.4599 3.99219 42.8551V19.1461C3.99219 17.4536 4.57872 15.8447 5.6084 14.568L28.8115 46.2682C29.4501 47.1405 30.4315 47.6982 31.5078 47.7994C32.5841 47.9005 33.6525 47.5355 34.4424 46.7975L51.9395 30.4478C53.9822 28.5391 53.4927 25.1776 50.9902 23.9312L42.3057 19.607L33.6611 15.3023L33.4082 15.1861C30.7896 14.0922 27.8417 16.0258 27.8662 18.9234L27.9805 32.3336L11.9023 10.3687L28.1699 0.977142ZM38.9355 26.3746L43.0381 28.4176L35.5674 35.398L35.4756 24.651L38.9355 26.3746Z" fill="black"/>
</svg>
